<?xml version="1.0" encoding="utf-8"?>
<!-- Generator: Adobe Illustrator 24.0.2, SVG Export Plug-In . SVG Version: 6.00 Build 0)  -->
<svg version="1.1" id="Layer_1" xmlns="http://www.w3.org/2000/svg" xmlns:xlink="http://www.w3.org/1999/xlink" x="0px" y="0px"
	 viewBox="0 0 403 51" style="enable-background:new 0 0 403 51;" xml:space="preserve">
<style type="text/css">
	.st0{fill:#820000;}
	.st1{fill:url(#SVGID_1_);}
	.st2{fill:url(#SVGID_2_);}
	.st3{fill:url(#SVGID_3_);}
	.st4{fill:url(#SVGID_4_);}
</style>
<g>
	<path class="st0" d="M-0.4,8h30.6c0,0-6.1-6.1-15.1-5.7S-0.4,8-0.4,8z"/>
	<path class="st0" d="M403.4,8h-30.6c0,0,6.1-6.1,15.1-5.7C396.8,2.8,403.4,8,403.4,8z"/>
	<linearGradient id="SVGID_1_" gradientUnits="userSpaceOnUse" x1="201.5001" y1="45.2635" x2="201.5001" y2="-2.4925">
		<stop  offset="0" style="stop-color:#F24040"/>
		<stop  offset="1" style="stop-color:#B50E0E"/>
	</linearGradient>
	<path class="st1" d="M381.7-0.2c-6.7,0-69.9,0-128.6,0c0,0-49.7,0-103.1,0c-58.7,0-121.9,0-128.6,0C8.4-0.2-0.4,8-0.4,8
		c36.5-20.8,40.9,42.8,67.1,42.8H150H253h83.3c26.2,0,30.6-63.6,67.1-42.8C403.4,8,394.6-0.2,381.7-0.2z"/>
	<g>
		<linearGradient id="SVGID_2_" gradientUnits="userSpaceOnUse" x1="11.7735" y1="3.8694" x2="11.7735" y2="3.8694">
			<stop  offset="0" style="stop-color:#F24040"/>
			<stop  offset="1" style="stop-color:#B50E0E"/>
		</linearGradient>
		<polygon class="st2" points="11.8,3.9 11.8,3.9 11.8,3.9 		"/>
		<linearGradient id="SVGID_3_" gradientUnits="userSpaceOnUse" x1="391.2266" y1="3.8694" x2="391.2266" y2="3.8694">
			<stop  offset="0" style="stop-color:#F24040"/>
			<stop  offset="1" style="stop-color:#B50E0E"/>
		</linearGradient>
		<polygon class="st3" points="391.2,3.9 391.2,3.9 391.2,3.9 		"/>
		<linearGradient id="SVGID_4_" gradientUnits="userSpaceOnUse" x1="201.5012" y1="7.6226" x2="201.5012" y2="48.599">
			<stop  offset="0" style="stop-color:#F24040"/>
			<stop  offset="1" style="stop-color:#B50E0E"/>
		</linearGradient>
		<path class="st4" d="M66.7,50.8H150H253h83.3c22.5,0,28.9-46.9,53.4-47c-1.7,0-3.4,0.1-5.1,0.6c-2.1,0.6-4.2,1.5-6,2.7
			c-3.7,2.5-6.8,5.7-9.5,9.2c-5.5,6.9-9.8,14.7-15.1,21.5c-2.6,3.4-5.5,6.7-9,9c-1.7,1.2-3.7,1.9-5.6,2.4c-1,0.2-2,0.3-3,0.3l-3.3,0
			l-26.3-0.3c-35.1-0.4-70.2-0.4-105.3-0.5c-35.1,0.1-70.2,0.1-105.3,0.5l-26.3,0.3l-3.3,0c-1-0.1-2-0.1-3-0.3
			c-2-0.4-3.9-1.2-5.6-2.4c-3.5-2.3-6.4-5.5-9-9c-5.3-6.9-9.6-14.6-15.1-21.6c-2.7-3.5-5.8-6.7-9.5-9.2c-1.9-1.2-3.9-2.1-6-2.7
			C16.7,4,15,3.8,13.3,3.8C37.7,3.9,44.2,50.8,66.7,50.8z"/>
	</g>
</g>
<g>
</g>
<g>
</g>
<g>
</g>
<g>
</g>
<g>
</g>
<g>
</g>
<g>
</g>
<g>
</g>
<g>
</g>
<g>
</g>
<g>
</g>
<g>
</g>
<g>
</g>
<g>
</g>
<g>
</g>
</svg>
